<svg width="71" height="35" viewBox="0 0 71 35" fill="none" xmlns="http://www.w3.org/2000/svg">
<path d="M14.9482 1.27273H21.7876V24.0923C21.7876 26.2017 21.3136 28.0341 20.3654 29.5895C19.4279 31.1449 18.1229 32.3434 16.4503 33.185C14.7777 34.0266 12.8335 34.4474 10.6175 34.4474C8.64666 34.4474 6.85689 34.1012 5.24822 33.4087C3.65021 32.7056 2.38246 31.6403 1.44496 30.2127C0.507457 28.7745 0.0440341 26.9687 0.0546875 24.7955H6.94212C6.96342 25.6584 7.1392 26.3988 7.46946 27.0167C7.81037 27.6239 8.27379 28.0927 8.85973 28.4229C9.45632 28.7425 10.1594 28.9023 10.9691 28.9023C11.8214 28.9023 12.5405 28.7212 13.1264 28.359C13.723 27.9862 14.1758 27.4428 14.4847 26.729C14.7937 26.0153 14.9482 25.1364 14.9482 24.0923V1.27273ZM57.5831 17.6364C57.5831 21.2053 56.9066 24.2415 55.5536 26.745C54.2113 29.2486 52.3789 31.1609 50.0565 32.4819C47.7447 33.7923 45.1452 34.4474 42.2582 34.4474C39.3498 34.4474 36.7397 33.7869 34.4279 32.4659C32.1161 31.1449 30.2891 29.2326 28.9467 26.729C27.6044 24.2255 26.9332 21.1946 26.9332 17.6364C26.9332 14.0675 27.6044 11.0312 28.9467 8.5277C30.2891 6.02415 32.1161 4.11719 34.4279 2.80682C36.7397 1.48579 39.3498 0.825283 42.2582 0.825283C45.1452 0.825283 47.7447 1.48579 50.0565 2.80682C52.3789 4.11719 54.2113 6.02415 55.5536 8.5277C56.9066 11.0312 57.5831 14.0675 57.5831 17.6364ZM50.5678 17.6364C50.5678 15.3246 50.2216 13.375 49.5291 11.7876C48.8473 10.2003 47.8832 8.99645 46.6367 8.17614C45.3903 7.35582 43.9308 6.94567 42.2582 6.94567C40.5856 6.94567 39.1261 7.35582 37.8796 8.17614C36.6332 8.99645 35.6637 10.2003 34.9712 11.7876C34.2894 13.375 33.9485 15.3246 33.9485 17.6364C33.9485 19.9482 34.2894 21.8977 34.9712 23.4851C35.6637 25.0724 36.6332 26.2763 37.8796 27.0966C39.1261 27.9169 40.5856 28.3271 42.2582 28.3271C43.9308 28.3271 45.3903 27.9169 46.6367 27.0966C47.8832 26.2763 48.8473 25.0724 49.5291 23.4851C50.2216 21.8977 50.5678 19.9482 50.5678 17.6364Z" fill="white"/>
<path d="M66.5599 34.4155C65.5052 34.4155 64.5997 34.0426 63.8433 33.2969C63.0976 32.5405 62.7247 31.6349 62.7247 30.5803C62.7247 29.5362 63.0976 28.6413 63.8433 27.8956C64.5997 27.1499 65.5052 26.777 66.5599 26.777C67.5827 26.777 68.4775 27.1499 69.2446 27.8956C70.0116 28.6413 70.3952 29.5362 70.3952 30.5803C70.3952 31.2834 70.214 31.9279 69.8518 32.5138C69.5003 33.0891 69.0368 33.5526 68.4616 33.9041C67.8863 34.245 67.2524 34.4155 66.5599 34.4155Z" fill="#25D366"/>
</svg>
